<svg width="4096" height="4096" viewBox="0 0 1024 1024" xmlns="http://www.w3.org/2000/svg" style="display:block" preserveAspectRatio="xMidYMid meet"><rect x="0" y="0" width="1024" height="1024" fill="#e7e7e7"></rect><svg x="244" y="628" width="537" height="64" xmlns="http://www.w3.org/2000/svg" style="display:block" preserveAspectRatio="none"><svg version="1.1" xmlns="http://www.w3.org/2000/svg" style="display: block;" width="537" height="64" viewBox="542.71 65.83 1431.05 170.55" preserveAspectRatio="none"><g id="svg-group-2eec8d7e-f376-4065-90c0-1044ec4499f4">
<path transform="translate(0,0)" fill="rgb(1,1,1)" d="M 1313.76 87.801 C 1317.1 84.7632 1363.6 84.5848 1367.24 88.0593 C 1398.01 87.7416 1409.87 134.132 1390.04 153.108 C 1386.25 156.736 1382.34 160.095 1378.63 163.837 C 1381.23 176.26 1418.69 206.252 1389.69 214.141 C 1379.42 216.934 1362.61 180.895 1355.69 173.654 C 1355.07 173.007 1352.19 167.914 1352.21 167.929 C 1346.28 164.109 1337.08 167.45 1330.43 164.131 C 1329.36 176.061 1331.97 197.754 1327.66 206.557 C 1327.61 209.613 1327.56 208.782 1325.48 211.691 C 1318.46 215.724 1313.98 214.044 1308.39 209.158 C 1304.65 203.845 1305.41 113.933 1306.14 101.417 C 1306.33 98.3147 1306.96 95.2538 1307.99 92.3223 C 1309.36 91.0256 1312.16 89.0216 1313.76 87.801 z M 1331.07 140.959 C 1339.98 141.058 1366.34 142.685 1372.02 137.082 L 1372.21 136.893 C 1386.4 106.099 1348.53 111.985 1331.08 112.055 L 1331.07 140.959 z"/>
<path transform="translate(0,0)" fill="rgb(30,30,31)" d="M 1308.39 209.158 C 1304.65 203.845 1305.41 113.933 1306.14 101.417 C 1306.33 98.3147 1306.96 95.2538 1307.99 92.3223 C 1309.07 103.278 1307.86 118.653 1308.12 130.128 C 1308.69 155.984 1307.55 183.462 1308.39 209.158 z"/>
<path transform="translate(0,0)" fill="rgb(89,89,90)" d="M 1313.76 87.801 C 1317.1 84.7632 1363.6 84.5848 1367.24 88.0593 C 1356.48 88.7751 1324.29 88.434 1313.76 87.801 z"/>
<path transform="translate(0,0)" fill="rgb(30,30,31)" d="M 1327.66 206.557 C 1327.34 200.996 1326.54 166.021 1330.43 164.131 C 1329.36 176.061 1331.97 197.754 1327.66 206.557 z"/>
<path transform="translate(0,0)" fill="rgb(89,89,90)" d="M 1329.05 109.962 C 1338.78 109.875 1349.72 109.193 1359.35 110.195 C 1377.26 112.061 1382.74 124.357 1372.74 139.148 C 1364 145.34 1340.81 143.358 1328.89 143.26 C 1328.79 133.013 1328.34 119.97 1329.05 109.962 z M 1331.07 140.959 C 1339.98 141.058 1366.34 142.685 1372.02 137.082 L 1372.21 136.893 C 1386.4 106.099 1348.53 111.985 1331.08 112.055 L 1331.07 140.959 z"/>
<path transform="translate(0,0)" fill="rgb(1,1,1)" d="M 1183.77 85.9563 C 1207.76 84.3636 1200.21 147.301 1210.32 155.57 C 1215.18 150.695 1219.25 112.998 1232.4 116.265 C 1249.1 120.417 1244.86 139.577 1255.14 154.328 L 1256.25 153.647 C 1260.88 144.189 1262.33 91.0038 1272.57 87.2481 C 1301.64 76.5899 1282.49 139.738 1279.62 151.872 C 1279.7 152.38 1278.98 157.086 1278.79 157.684 C 1274.61 170.985 1276.18 209.612 1260.52 214.321 C 1243.82 219.342 1240.5 170.595 1232.06 166.384 C 1222.04 172.088 1219.69 236.386 1194.18 207.099 C 1187.24 181.937 1179.2 123.112 1175.09 95.2104 C 1174.74 92.8269 1181.37 87.9362 1183.77 85.9563 z"/>
<path transform="translate(0,0)" fill="rgb(1,1,1)" d="M 1498.77 88.0274 C 1505.69 83.6828 1538.5 86.4351 1548.26 86.2232 C 1548.92 86.2091 1550.69 87.5601 1551.25 88.0161 C 1562.37 88.3871 1561.93 105.86 1558.47 107.264 C 1519.86 122.948 1481.91 85.2379 1487.97 153.719 C 1489.02 165.516 1484.42 177.258 1497.22 188.625 C 1506.01 190.524 1526.95 190.921 1535.6 188.625 C 1541.93 180.666 1540.2 173.419 1540 163.001 C 1531.39 163.177 1521.67 164.207 1514.71 158.182 C 1509.49 153.664 1513.67 145.737 1517.47 141.883 C 1524.91 139.244 1554.42 137.21 1560.13 142.924 C 1562.57 147.008 1562.16 152.532 1562.34 157.208 C 1563.11 177.602 1564.21 206.807 1538.28 211.927 C 1537.73 212.386 1535.93 213.771 1535.27 213.757 C 1526.12 213.556 1499.51 216.259 1492.72 211.873 C 1492 211.228 1489.89 211.058 1488.86 210.615 C 1474.67 204.542 1466.89 193.489 1465.72 178.693 C 1463.26 170.565 1463.03 123.283 1466.79 116.318 C 1471.18 100.726 1480.95 88.1878 1498.77 88.0274 z"/>
<path transform="translate(0,0)" fill="rgb(30,30,31)" d="M 1465.72 178.693 C 1463.26 170.565 1463.03 123.283 1466.79 116.318 C 1467.2 119.971 1466.14 177.071 1465.72 178.693 z"/>
<path transform="translate(0,0)" fill="rgb(114,114,115)" d="M 1498.77 88.0274 C 1505.69 83.6828 1538.5 86.4351 1548.26 86.2232 C 1548.92 86.2091 1550.69 87.5601 1551.25 88.0161 C 1536.59 89.0175 1514.02 88.167 1498.77 88.0274 z"/>
<path transform="translate(0,0)" fill="rgb(30,30,31)" d="M 1517.47 141.883 C 1524.91 139.244 1554.42 137.21 1560.13 142.924 C 1551.24 141.3 1527.4 141.839 1517.47 141.883 z"/>
<path transform="translate(0,0)" fill="rgb(30,30,31)" d="M 1492.72 211.873 C 1505.03 212.115 1527.77 211.217 1538.28 211.927 C 1537.73 212.386 1535.93 213.771 1535.27 213.757 C 1526.12 213.556 1499.51 216.259 1492.72 211.873 z"/>
<path transform="translate(0,0)" fill="rgb(30,30,31)" d="M 1497.22 188.625 C 1506.01 190.524 1526.95 190.921 1535.6 188.625 C 1532.33 194.076 1503.13 193.507 1497.22 188.625 z"/>
<path transform="translate(0,0)" fill="rgb(1,1,1)" d="M 861.783 87.8732 C 865.125 84.6837 907.912 84.7585 912.215 87.8745 C 924.565 92.6364 923.894 106.879 911.308 110.315 C 906.667 111.858 867.104 110.981 860.027 110.999 L 860.023 137.97 C 868.954 137.872 899.542 135.276 903.4 143.789 C 906.21 149.541 907.109 155.385 901.348 159.906 C 890.071 163.739 872.189 163.097 860.023 163.015 L 860.03 188.976 C 868.327 188.921 913.283 187.049 916.514 191.918 C 923.273 198.785 922.175 205.974 915.282 212.19 C 911.904 215.21 846.102 215.17 842.777 212.279 C 838.796 209.817 835.958 206.24 835.95 201.38 C 835.895 169.186 835.843 136.907 836.105 104.719 C 836.138 100.572 835.887 94.3285 838.531 91.7686 C 844.043 83.4404 858.203 88.0621 861.585 87.8852 L 861.783 87.8732 z"/>
<path transform="translate(0,0)" fill="rgb(30,30,31)" d="M 857.966 161.767 C 869.614 160.462 889.2 160.339 901.348 159.906 C 890.071 163.739 872.189 163.097 860.023 163.015 L 860.03 188.976 C 868.327 188.921 913.283 187.049 916.514 191.918 C 896.539 190.405 877.425 192.019 857.651 190.897 L 857.966 161.767 z"/>
<path transform="translate(0,0)" fill="rgb(30,30,31)" d="M 857.264 109.779 C 868.245 110.164 902.776 108.896 911.308 110.315 C 906.667 111.858 867.104 110.981 860.027 110.999 L 860.023 137.97 C 868.954 137.872 899.542 135.276 903.4 143.789 C 891.436 138.171 871.837 139.874 858.049 139.945 C 858.074 129.132 858.125 120.571 857.264 109.779 z"/>
<path transform="translate(0,0)" fill="rgb(30,30,31)" d="M 842.777 212.279 C 856.697 211.307 873.986 212.184 888.217 212.025 C 894.196 211.958 910.286 211.685 915.282 212.19 C 911.904 215.21 846.102 215.17 842.777 212.279 z"/>
<path transform="translate(0,0)" fill="rgb(114,114,115)" d="M 861.783 87.8732 C 865.125 84.6837 907.912 84.7585 912.215 87.8745 C 904.031 88.6005 869.814 88.5489 861.783 87.8732 z"/>
<path transform="translate(0,0)" fill="rgb(1,1,1)" d="M 948.781 87.8774 C 952.082 84.734 1013.92 84.7628 1017.21 87.8652 C 1032.6 93.7926 1025.7 110.401 1013.71 110.767 C 1001 111.154 978.163 112.428 966.208 110.505 C 964.308 116.33 960.957 136.395 970.402 137.895 C 980.825 139.55 999.706 134.79 1008.22 142.279 C 1011.27 148.996 1012.59 156.165 1004.99 160.246 C 995.74 163.763 975.219 163.036 965.029 163.016 C 965.102 169.412 965.507 177.192 965.099 183.525 C 964.671 190.166 964.933 189.476 972.908 189.78 C 985.951 190.278 1009.22 185.773 1020.73 191.548 L 1021.05 192.312 C 1027.98 199.176 1028.39 208.605 1018.54 212.432 L 1017.79 213.537 C 1017.48 213.62 1015.83 213.992 1015.65 213.978 C 1005.92 213.26 952.708 216.113 947.74 212.397 L 943.223 208.034 L 942.188 207.525 C 941.963 206.477 941.778 205.421 941.632 204.359 C 940.04 192.715 940.99 169.4 940.907 156.783 C 940.83 144.912 939.2 96.7992 943.752 90.788 C 944.405 89.9407 947.636 88.4568 948.781 87.8774 z"/>
<path transform="translate(0,0)" fill="rgb(30,30,31)" d="M 963.001 161.591 C 976.269 161.06 991.898 160.072 1004.99 160.246 C 995.74 163.763 975.219 163.036 965.029 163.016 C 965.102 169.412 965.507 177.192 965.099 183.525 C 964.671 190.166 964.933 189.476 972.908 189.78 C 985.951 190.278 1009.22 185.773 1020.73 191.548 L 1021.05 192.312 C 1020.86 192.349 1013.12 191.455 1012.1 191.437 C 995.853 191.149 979.397 191.407 963.156 191.53 C 962.567 183.464 962.996 170.049 963.001 161.591 z"/>
<path transform="translate(0,0)" fill="rgb(30,30,31)" d="M 943.223 208.034 L 942.188 207.525 C 941.963 206.477 941.778 205.421 941.632 204.359 C 940.04 192.715 940.99 169.4 940.907 156.783 C 940.83 144.912 939.2 96.7992 943.752 90.788 C 941.532 98.739 942.32 195.414 943.223 208.034 z"/>
<path transform="translate(0,0)" fill="rgb(114,114,115)" d="M 948.781 87.8774 C 952.082 84.734 1013.92 84.7628 1017.21 87.8652 C 1008 88.7967 958.22 88.5635 948.781 87.8774 z"/>
<path transform="translate(0,0)" fill="rgb(30,30,31)" d="M 947.74 212.397 C 954.475 211.645 1013.7 211.161 1018.54 212.432 L 1017.79 213.537 C 1017.48 213.62 1015.83 213.992 1015.65 213.978 C 1005.92 213.26 952.708 216.113 947.74 212.397 z"/>
<path transform="translate(0,0)" fill="rgb(30,30,31)" d="M 963.396 139.939 C 963.22 134.597 961.809 113.368 964.323 110.43 L 966.208 110.505 C 964.308 116.33 960.957 136.395 970.402 137.895 C 980.825 139.55 999.706 134.79 1008.22 142.279 C 996.781 138.817 976.09 139.939 963.396 139.939 z"/>
<path transform="translate(0,0)" fill="rgb(1,1,1)" d="M 747.578 139.239 C 760.502 123.842 775.248 109.885 789.316 95.5327 C 794.844 90.6526 802.494 81.656 810.194 88.6455 C 818.981 96.622 813.52 104.597 807.766 111.743 C 798.513 123.233 780.15 136.232 772.548 148.067 C 779.477 165.824 821.141 185.631 814.626 206.82 C 812.577 213.485 803.277 216.717 797.459 211.088 C 782.724 196.833 770.153 180.294 755.5 166.004 C 752.034 169.535 748.331 173.084 745.577 177.181 C 746.513 185.188 747.823 203.191 742.821 209.47 C 742.663 209.668 742.502 209.862 742.336 210.054 C 734.876 217.123 726.384 214.615 722.945 205.253 C 722.62 204.713 721.225 202.521 721.233 202.216 C 721.565 189.617 718.853 98.1986 722.715 93.8304 C 723.075 93.2557 723.472 92.704 723.901 92.1786 C 730.903 83.5127 735.163 84.5384 742.666 90.9506 C 750.434 101.963 742.352 131.437 747.578 139.239 z"/>
<path transform="translate(0,0)" fill="rgb(89,89,90)" d="M 722.715 93.8304 C 723.583 117.178 722.965 142.285 723.223 165.77 C 723.31 173.651 723.735 198.47 722.945 205.253 C 722.62 204.713 721.225 202.521 721.233 202.216 C 721.565 189.617 718.853 98.1986 722.715 93.8304 z"/>
<path transform="translate(0,0)" fill="rgb(30,30,31)" d="M 742.666 90.9506 C 750.434 101.963 742.352 131.437 747.578 139.239 C 747.7 140.407 747.61 140.547 747.006 141.547 L 745.562 141.308 C 743.587 138.561 743.206 98.7479 742.666 90.9506 z"/>
<path transform="translate(0,0)" fill="rgb(1,1,1)" d="M 1657.76 89.9681 C 1669.58 83.5221 1677.4 86.1157 1677.72 100.554 C 1678.47 133.845 1678.07 167.235 1677.95 200.536 C 1677.9 213.527 1667.01 218.679 1657.78 209.583 C 1650.41 203.668 1659.33 168.829 1653.18 163.275 C 1650.27 160.65 1615.12 163.453 1607.76 162.695 C 1608.11 177.45 1615.25 227.579 1587.3 210.209 C 1583.14 203.679 1583.89 98.4078 1586.57 91.8604 C 1613.39 65.8324 1608.13 127.779 1607.99 139.261 C 1612.16 138.629 1644.84 138.637 1651.85 138.445 C 1660.68 132.438 1649.71 101.127 1657.76 89.9681 z"/>
<path transform="translate(0,0)" fill="rgb(30,30,31)" d="M 1587.3 210.209 C 1583.14 203.679 1583.89 98.4078 1586.57 91.8604 C 1587.81 103.644 1586.71 119.675 1586.94 131.793 C 1587.4 156.992 1586 185.237 1587.3 210.209 z"/>
<path transform="translate(0,0)" fill="rgb(30,30,31)" d="M 1607.76 162.695 L 1608.72 160.735 C 1615.85 159.654 1649.11 159.965 1657.08 160.605 C 1657.04 170.338 1656.42 201.964 1657.78 209.583 C 1650.41 203.668 1659.33 168.829 1653.18 163.275 C 1650.27 160.65 1615.12 163.453 1607.76 162.695 z"/>
<path transform="translate(0,0)" fill="rgb(30,30,31)" d="M 1607.99 139.261 C 1612.16 138.629 1644.84 138.637 1651.85 138.445 C 1660.68 132.438 1649.71 101.127 1657.76 89.9681 C 1655.87 106.7 1657.86 124.118 1656.78 140.141 C 1650.98 140.08 1609.7 140.495 1607.99 139.261 z"/>
<path transform="translate(0,0)" fill="rgb(1,1,1)" d="M 1702.8 87.754 C 1707.11 83.9409 1773.88 86.3291 1784.62 86.3725 C 1787.2 86.3829 1789.98 88.5092 1792.09 90.1416 C 1797.62 99.4834 1796.32 103.838 1788.5 111.002 C 1780.73 111.003 1765.93 111.408 1758.72 110.584 C 1753.3 119.195 1761.2 201.626 1754.61 209.029 C 1747.5 216.628 1743.14 215.543 1735.71 209.236 C 1731.79 204.45 1733.46 127.928 1733.43 117.188 C 1733.39 102.289 1709.93 118.003 1698.22 107.486 C 1689.91 101.796 1695.98 91.9958 1702.8 87.754 z"/>
<path transform="translate(0,0)" fill="rgb(30,30,31)" d="M 1698.22 107.486 C 1713.03 111.044 1720.43 108.124 1735.23 108.494 L 1734.94 167.594 C 1734.9 180.696 1734.45 196.434 1735.71 209.236 C 1731.79 204.45 1733.46 127.928 1733.43 117.188 C 1733.39 102.289 1709.93 118.003 1698.22 107.486 z"/>
<path transform="translate(0,0)" fill="rgb(30,30,31)" d="M 1754.61 209.029 C 1756.99 178.787 1753.62 144.866 1754.91 114.289 C 1755.02 111.683 1754.93 111.026 1756.98 109.663 L 1758.72 110.584 C 1753.3 119.195 1761.2 201.626 1754.61 209.029 z"/>
<path transform="translate(0,0)" fill="rgb(114,114,115)" d="M 1702.8 87.754 C 1707.11 83.9409 1773.88 86.3291 1784.62 86.3725 C 1787.2 86.3829 1789.98 88.5092 1792.09 90.1416 C 1781.48 86.2739 1720.12 89.1738 1702.8 87.754 z"/>
<path transform="translate(0,0)" fill="rgb(1,1,1)" d="M 1049.46 90.8753 C 1052.45 87.9989 1053.23 86.5498 1057.66 86.4708 C 1061.32 86.4054 1067.44 89.5309 1067.49 93.4071 C 1075.35 103.623 1063.66 186.7 1074.17 189.546 C 1080.55 191.273 1116.7 184.571 1126.12 192.544 C 1132.73 200.416 1131.24 205.512 1124.32 212.409 C 1123.18 213.321 1123.07 213.776 1121.61 213.799 C 1099.3 214.156 1076.55 214.775 1054.29 213.465 C 1054.29 213.465 1051.88 211.474 1051.64 211.277 L 1048.48 208.422 L 1047.31 206.761 C 1046.3 198.638 1045.86 190.878 1045.93 182.672 C 1046.16 154.187 1045.26 125.556 1046.41 97.103 C 1046.48 95.3239 1048.42 92.3589 1049.46 90.8753 z"/>
<path transform="translate(0,0)" fill="rgb(30,30,31)" d="M 1048.48 208.422 L 1047.31 206.761 C 1046.3 198.638 1045.86 190.878 1045.93 182.672 C 1046.16 154.187 1045.26 125.556 1046.41 97.103 C 1046.48 95.3239 1048.42 92.3589 1049.46 90.8753 C 1045.77 109.247 1048.99 159.651 1048.34 181.384 C 1048.11 189.091 1049.57 200.817 1048.48 208.422 z"/>
<path transform="translate(0,0)" fill="rgb(30,30,31)" d="M 1051.64 211.277 C 1067.65 213.228 1088.77 211.479 1105.13 211.963 C 1109.74 212.099 1120.17 211.685 1124.32 212.409 C 1123.18 213.321 1123.07 213.776 1121.61 213.799 C 1099.3 214.156 1076.55 214.775 1054.29 213.465 C 1054.29 213.465 1051.88 211.474 1051.64 211.277 z"/>
<path transform="translate(0,0)" fill="rgb(1,1,1)" d="M 1422.61 91.8755 C 1429.63 85.0626 1432.55 83.4279 1440.68 90.9715 C 1442.15 93.1406 1443.54 96.18 1443.62 99.1978 C 1444.45 134.306 1444.35 169.996 1443.68 205.108 C 1443.67 205.981 1442.13 208.497 1441.66 209.199 C 1437.86 215.032 1433.22 214.701 1427.21 213.533 C 1425.89 212.473 1425.1 211.777 1423.88 210.573 C 1420.5 207.163 1419.64 196.723 1420 192.35 C 1421.06 179.267 1417.17 96.8781 1422.61 91.8755 z"/>
<path transform="translate(0,0)" fill="rgb(30,30,31)" d="M 1423.88 210.573 C 1420.5 207.163 1419.64 196.723 1420 192.35 C 1421.06 179.267 1417.17 96.8781 1422.61 91.8755 C 1423.26 117.367 1418.52 189.386 1423.88 210.573 z"/>
</g></svg></svg><svg x="350" y="327" width="325" height="254" xmlns="http://www.w3.org/2000/svg" style="display:block" preserveAspectRatio="none"><svg version="1.1" xmlns="http://www.w3.org/2000/svg" style="display: block;" width="325" height="254" viewBox="0.00 -0.30 2048.00 1600.59" preserveAspectRatio="none"><g id="svg-group-b4d1d5bc-3bfc-4152-9cfa-8ec4b3a0ebdd">
<path transform="translate(0,0)" fill="rgba(0, 0, 0, 1)" d="M 1026.07 0 L 1031.9 0 C 1069.86 32.0254 1063.27 28.0434 1063.25 78.3163 L 1063.2 145.995 C 1063.19 156.192 1062.65 175.726 1064.14 184.741 C 1103.97 182.827 1144.09 183.616 1183.98 183.497 C 1208.16 183.424 1234.25 181.395 1258.2 184.535 C 1266.12 185.574 1275.03 187.677 1281.17 193.048 C 1288.28 199.257 1295.44 211.473 1295.65 220.95 C 1295.84 229.64 1290.23 244.151 1284.05 250.407 C 1277.68 256.853 1264.69 259.719 1255.98 260.838 C 1229.23 264.275 1073.18 257.49 1065.5 263.362 C 1062.98 265.293 1063.18 272.803 1063.1 275.825 C 1062.15 311.844 1063.09 348.113 1063.13 384.158 C 1063.16 408.031 1061.86 432.512 1063.03 456.325 C 1063.22 460.051 1063.65 463.44 1064.91 466.974 C 1070.06 471.936 1118.62 470.453 1128.67 470.456 L 1219.36 470.485 L 1498.54 470.504 L 1558.83 470.474 C 1576.24 470.437 1603.03 468.678 1618.28 473.182 C 1648.29 482.8 1655.9 513.038 1633.74 536.187 C 1619.21 551.359 1598.25 545.841 1580.51 548.256 C 1562.88 550.655 1513.78 541.973 1500.34 548.483 C 1490.84 560.182 1497.23 627.491 1495.42 645.807 C 1494.79 652.166 1496.15 666.714 1501.25 671.38 C 1512.49 673.038 1536.63 672.429 1548.64 672.431 L 1631.94 672.419 L 1922.11 672.424 C 1951.12 672.388 1996.24 670.189 2024.51 675.665 C 2033.22 677.352 2041.41 693.452 2048 699.558 L 2048 717.502 C 2038.41 732.416 2026.96 746.375 2017.59 761.754 C 1965.63 846.967 1913.65 933.453 1863.65 1019.82 L 1806.59 1118.64 C 1796.97 1135.69 1763.86 1198.61 1751.64 1209.05 C 1726.18 1230.78 1652.27 1265.18 1620.02 1282.9 C 1586.88 1301.11 1554.77 1318.91 1523.05 1335.91 L 1226.93 1495 C 1196.73 1511.31 1166.41 1527.4 1135.98 1543.25 C 1110.38 1556.47 1054.63 1583.47 1035.55 1600 L 1015.51 1600 C 1010.18 1594.48 970.948 1575.92 961.478 1570.55 C 941.818 1559.4 920.573 1547.45 900.602 1536.74 L 505.171 1322.49 C 445.289 1290.8 382.656 1260.44 325.075 1225.05 C 319.536 1221.65 308.527 1218.52 305.126 1215.05 C 279.07 1188.45 259.652 1142.48 240.701 1110.45 C 217.964 1072.02 194.747 1035.09 172.48 997.141 L 62.7603 811.129 C 50.853 791.385 16.2356 729.923 0 717.253 L 0 695.223 C 6.60442 690.149 25.374 674.662 31.8834 673.683 C 46.412 671.499 67.1279 672.325 82.3012 672.34 L 176.422 672.412 L 548.222 672.447 C 550.344 670.86 555.656 667.127 555.703 664.246 C 556.278 629.268 556.506 592.83 555.013 557.883 C 554.931 555.974 550.622 549.858 549.536 548.266 C 527.597 543.042 484.367 545.838 460.043 545.85 C 451.066 545.855 440.808 546.789 432.095 544.524 C 426.737 543.132 422.094 540.284 418.088 536.516 C 410.212 529.108 405.278 519.099 405.13 508.201 C 404.895 490.951 416.317 478.735 432.066 473.629 C 451.281 467.4 529.528 470.546 555.085 470.53 L 836.813 470.457 L 929.408 470.456 C 945.802 470.455 962.355 470.576 978.742 470.277 C 982.907 470.2 984.581 470.243 987.122 467.733 C 990.337 458.245 989.915 274.642 986.716 264.418 C 976.222 256.38 815.178 265.048 788.908 261.15 C 777.956 259.525 767.064 252.867 760.49 243.97 C 754.983 236.519 753.562 228.263 755.085 219.284 C 757.327 206.066 765.376 193.174 778.175 188.01 C 793.845 181.687 816.285 186.061 833.04 186.289 C 861.316 186.673 889.628 186.427 917.908 186.452 C 934.994 186.467 952.894 187.488 969.884 185.907 C 973.917 185.532 982.653 184.775 985.576 181.72 C 987.587 179.618 988.169 174.865 988.442 172.062 C 989.424 162.004 988.772 151.41 988.722 141.3 L 988.402 74.4292 C 988.345 61.3747 988.07 48.2958 988.965 35.2637 C 990.23 16.8493 1010.41 12.4523 1026.07 0 z M 1065.01 1493.33 C 1083.72 1489.42 1167.38 1440.43 1189.25 1427.63 C 1192.61 1415.39 1190.81 1382.98 1190.91 1368.39 L 1190.9 1253.02 C 1190.87 1225.89 1190.6 1193.39 1193.01 1166.42 C 1154.97 1145.06 1136.46 1136.41 1127.22 1090.79 C 1114.29 1026.98 1147.19 969.01 1210.93 951.892 C 1238.94 944.343 1268.82 948.556 1293.65 963.555 C 1306.33 971.06 1317.43 980.771 1330.37 987.636 C 1339.33 984.328 1348.87 978.891 1357.4 974.376 C 1376.54 964.602 1406.32 953.511 1423.11 942.796 C 1422.83 911.698 1421.59 892.555 1437.47 863.876 C 1442.88 854.105 1447.31 847.042 1455.38 838.82 C 1475.76 818.049 1508.06 805.859 1536.92 805.229 C 1548.86 804.968 1567.29 808.494 1578.86 812.738 C 1586.06 815.381 1595.51 822.388 1600.49 825.667 C 1606.07 829.331 1633.02 856.144 1635.74 855.529 C 1655.88 850.995 1681.79 845.158 1702.3 841.744 C 1753.3 833.002 1804.22 823.774 1855.05 814.063 C 1868.43 811.461 1886.22 809.051 1898.78 806.237 C 1913.21 793.233 1927.18 767.782 1933.83 749.582 C 1916.02 747.396 1881.06 749.421 1861.95 749.65 C 1820.6 749.93 1779.24 749.988 1737.88 749.824 L 1247.31 749.508 L 1131.53 749.483 C 1117.64 749.467 1075.44 749.587 1063.22 747.339 L 1064.81 1265.51 L 1065.04 1401.19 C 1065.15 1414.57 1066.22 1427.69 1066.52 1441.07 C 1066.92 1458.55 1066 1475.88 1065.01 1493.33 z M 630.523 941.179 C 650.995 955.119 673.664 966.072 696.074 976.482 C 702.199 979.327 714.775 986.122 720.49 987.946 L 721.55 987.377 C 730.928 982.247 740.562 973.563 749.607 967.433 C 804.914 929.793 881.049 948.855 913.386 1007.13 C 938.112 1051.7 928.414 1107.73 894.145 1144.27 C 890.953 1147.67 862.455 1165.12 857.392 1167.41 C 860.519 1209.5 857.442 1251.19 862.937 1293.03 C 864.717 1306.58 863.789 1327.7 862.626 1341.34 C 860.283 1368.82 858.625 1396.67 858.311 1424.28 C 868.419 1434.11 875.277 1437.22 887.431 1444.07 C 919.382 1461.68 955.319 1483.13 987.578 1498.29 C 987.715 1457.97 985.217 1416.48 984.971 1375.49 L 983.466 971.028 C 983.176 906.528 982.406 841.372 986.473 776.873 C 986.996 768.574 987.252 757.651 986.966 749.437 C 900.992 748.362 811.186 749.581 724.959 749.737 L 380.136 749.296 L 207.281 749.544 C 181.412 749.503 155.635 748.882 129.774 748.616 C 125.735 748.575 122.043 748.631 117.994 748.224 C 125.484 767.026 136.246 791.608 150.242 806.159 C 155.751 811.888 194.992 816.392 204.088 818.009 C 244.843 825.442 285.645 832.622 326.49 839.547 C 342.006 842.259 357.471 845.26 372.875 848.548 C 383.469 850.746 398.647 854.307 409.186 854.727 C 415.635 851.546 421.862 842.428 428.757 837.6 C 466.373 811.262 504.123 796 550.095 811.825 C 582.037 822.82 601.802 840.953 616.765 870.75 C 629.959 897.027 629.203 912.964 630.523 941.179 z M 1652.63 926.971 C 1642.54 961.633 1636.34 996.814 1602.38 1014.45 C 1570.62 1030.96 1545.94 1039.81 1508.89 1030.65 C 1491.91 1026.45 1477.07 1014.25 1461.72 1007.17 C 1442.47 1013.42 1412.45 1029.95 1392.75 1038.64 C 1381.14 1043.76 1367.41 1049.5 1356.07 1054.69 C 1354.24 1061.27 1352.06 1069.87 1351.01 1076.51 C 1342.94 1127.15 1312.96 1155.77 1265.5 1171.22 C 1265.18 1186.53 1265.75 1204.87 1266.79 1220.18 C 1267.63 1232.55 1271.24 1248 1271.63 1260.38 C 1272.68 1294.15 1270.74 1329.53 1268.6 1363.25 L 1267.32 1385.44 C 1285.08 1381.95 1329.45 1354.95 1347.27 1345.32 L 1490.78 1267.72 L 1615.99 1201.03 C 1637.97 1189.26 1660.56 1177.3 1682.1 1164.71 C 1693.61 1157.99 1697.97 1153.03 1705.03 1142.05 C 1717.86 1122.09 1730.06 1101.48 1742.33 1081.13 C 1761.21 1050.32 1779.75 1019.3 1797.94 988.084 C 1812.4 963.133 1836.5 924.22 1847.31 899.304 C 1844.44 899.387 1841.4 899.548 1838.55 899.456 C 1816.6 900.683 1786.38 907.607 1763.95 911.169 C 1737.97 915.547 1711.94 919.606 1685.87 923.346 C 1674.76 924.865 1663.52 925.384 1652.63 926.971 z M 982.25 670.349 L 986.027 669.783 C 987.817 666.957 986.27 645.246 986.065 641.082 C 984.571 610.814 987.879 578.279 986.949 548.189 C 953.022 546.953 921.126 547.891 887.273 547.924 L 714.21 547.686 C 701.54 547.639 638.151 548.296 629.442 545.669 C 629.432 552.499 629.165 560.988 630.171 567.712 C 634.931 599.52 632.538 638.896 629.659 671.03 C 644.647 671.269 660.65 670.625 675.6 669.263 C 707.317 666.374 738.903 667.206 770.749 667.189 C 820.676 667.164 870.722 666.991 920.654 667.405 C 941.372 667.614 961.433 670.787 982.25 670.349 z M 521.587 962.84 C 544.808 959.316 560.743 937.59 557.129 914.383 C 553.514 891.175 531.726 875.325 508.532 879.031 C 485.467 882.716 469.724 904.357 473.318 927.437 C 476.913 950.517 498.493 966.345 521.587 962.84 z M 1550.46 960.614 C 1572.55 953.9 1585.07 930.598 1578.46 908.475 C 1571.86 886.352 1548.62 873.725 1526.46 880.223 C 1504.15 886.765 1491.42 910.203 1498.07 932.479 C 1504.72 954.755 1528.22 967.374 1550.46 960.614 z M 1244.52 1102.52 C 1267.03 1098.92 1282.29 1077.65 1278.49 1055.17 C 1274.69 1032.68 1253.29 1017.61 1230.84 1021.6 C 1208.67 1025.54 1193.81 1046.63 1197.56 1068.84 C 1201.32 1091.05 1222.28 1106.09 1244.52 1102.52 z M 815.495 1104.22 C 838.02 1104.02 856.167 1085.69 856.15 1063.16 C 856.133 1040.64 837.957 1022.34 815.431 1022.17 C 792.639 1022 774.075 1040.43 774.093 1063.23 C 774.11 1086.02 792.703 1104.43 815.495 1104.22 z M 987.523 1403.2 C 989.138 1381.21 991.328 1251.67 987.086 1234.7 C 984.86 1247.14 985.141 1399.79 987.523 1403.2 z M 1062.95 545.628 C 1063.76 569.546 1064.19 593.475 1064.22 617.407 C 1064.18 633.288 1063.23 654.035 1064.12 669.437 C 1068.7 672.043 1132.79 667.272 1144.25 667.233 L 1358.91 667.247 C 1379.64 667.428 1403.11 670.565 1421.76 670.263 C 1420.04 646.786 1418.48 622.928 1418.4 599.414 C 1418.34 582.941 1420.4 564.275 1419.91 548.378 C 1404.18 546.329 1364.33 547.885 1346.2 547.891 L 1153.85 547.707 C 1133.63 547.605 1113.41 547.348 1093.19 546.935 C 1085.55 546.761 1069.97 546.644 1062.95 545.628 z M 204.424 895.45 C 208.361 906.36 213.084 916.97 218.556 927.197 C 232.394 953.096 253.531 985.64 268.799 1011.84 L 314.087 1090.61 C 320.8 1102.32 346.635 1149.06 354.769 1155.05 C 383.115 1175.93 429.756 1198.16 461.434 1214.66 C 500.579 1235.32 539.59 1256.24 578.464 1277.42 L 707.115 1346.98 C 732.21 1360.75 757.261 1378.29 784.507 1387.26 C 784.678 1376.01 784.878 1365.01 784.6 1353.75 C 783.65 1336.67 782.8 1319.87 782.86 1302.74 C 782.892 1293.6 781.332 1284.21 781.545 1274.84 C 782.221 1244.94 778.158 1215.55 783.291 1185.85 C 783.746 1183.22 783.895 1177.22 781.775 1175.25 C 772.744 1168.02 755.995 1161.75 746.996 1154.86 C 727.985 1140.29 709.394 1114.07 703.626 1090.85 C 700.814 1079.53 699.147 1065.33 695.789 1054.96 C 665.253 1045.21 619.195 1022.72 589.329 1008.01 C 576.623 1013.8 564.827 1021.01 552.255 1026.82 C 486.274 1057.31 405.94 1001.6 400.793 931.557 C 356.931 923.053 313.007 914.87 269.024 907.012 C 251.3 903.949 220.54 900.678 204.424 895.45 z"/>
<path transform="translate(0,0)" fill="rgba(143, 149, 152, 1)" fill-opacity="0.984314" d="M 987.086 1234.7 C 991.328 1251.67 989.138 1381.21 987.523 1403.2 C 985.141 1399.79 984.86 1247.14 987.086 1234.7 z"/>
</g></svg></svg></svg>